<?xml version="1.0" encoding="utf-8"?>
<svg version="1.1" xmlns="http://www.w3.org/2000/svg" x="0" y="0" viewBox="0 0 396 90" xml:space="preserve">
  <style type="text/css">
    .st0{fill:url(#SVGID_1_);}
    .st1{fill:#FFFFFF;}
  </style>
  <defs>
    <linearGradient id="SVGID_1_" gradientUnits="userSpaceOnUse" x1="-395.2922" y1="313.9335" x2="-394.2922" y2="313.9335" gradientTransform="matrix(71.2778 38.0356 33.2374 -81.5677 17742.041 40654.4414)">
      <stop offset="0" style="stop-color:#FFFFFF"/>
      <stop offset="1" style="stop-color:#E5E7FF"/>
    </linearGradient>
  </defs>
  <g transform="matrix(5.741626899055351,0,0,5.741626899055351,91.81387238975063,-6.244019085031169)">
    <path class="st1" d="M1.19,14.08h1.6V10.4c0-1.3,0.78-2.28,2.07-2.32c1.09,0,1.75,0.68,1.75,1.82v4.18h1.61V10.4c0-1.3,0.77-2.28,2.04-2.32
      c1.09,0,1.77,0.68,1.77,1.82v4.18h1.61V9.45c0-1.78-1.03-2.87-2.73-2.87c-1.36,0-2.36,0.55-2.83,1.79
      C7.73,7.24,6.82,6.58,5.49,6.58c-1.23,0-2.19,0.45-2.7,1.5V6.64h-1.6V14.08z M15.09,10.37c0,2.24,1.51,3.77,3.81,3.77
      c1.29,0,2.35-0.46,3.08-1.26l-0.85-0.91c-0.55,0.56-1.29,0.87-2.1,0.87c-1.18,0-2.06-0.72-2.31-1.86h5.62
      c0.2-2.69-0.86-4.4-3.48-4.4C16.65,6.59,15.09,8.12,15.09,10.37z M16.69,9.8c0.18-1.19,1.01-1.93,2.18-1.93
      c1.22,0,2.02,0.73,2.07,1.93H16.69z M23.32,10.33c0,2.27,1.43,3.82,3.57,3.82c1.19,0,2.09-0.47,2.62-1.34v1.27h1.61V3.7h-1.61v4.22
      c-0.54-0.86-1.44-1.35-2.64-1.35C24.77,6.57,23.32,8.09,23.32,10.33z M24.93,10.39c0.02-1.43,0.96-2.45,2.3-2.45
      s2.28,1.01,2.28,2.45c0,1.41-0.94,2.42-2.28,2.42C25.87,12.81,24.95,11.8,24.93,10.39z M33.33,11.27c0,1.78,1.03,2.87,2.73,2.87
      c1.22-0.01,2.16-0.48,2.66-1.51v1.45h1.61V6.64h-1.61v3.66c0,1.31-0.75,2.3-2.04,2.33c-1.08,0-1.74-0.69-1.74-1.81V6.64h-1.61
      V11.27z M42.78,14.08h1.61V3.7h-1.61V14.08z M46.23,11.84c0,1.32,1.01,2.31,2.62,2.31c1.07,0,1.93-0.32,2.46-0.98v0.91h1.58
      L52.88,9.2c-0.02-1.64-1.09-2.62-3.01-2.62c-1.42,0-2.17,0.32-3.21,0.94l0.66,1.12c0.74-0.51,1.48-0.76,2.2-0.76
      c1.17,0,1.78,0.56,1.78,1.5V9.6h-2.26C47.25,9.62,46.23,10.49,46.23,11.84z M47.74,11.77c0-0.71,0.49-0.99,1.54-0.99h2.02v0.69
      c-0.09,0.81-0.97,1.41-2.12,1.41C48.29,12.88,47.74,12.45,47.74,11.77z"/>
  </g>
  <g transform="matrix(1.875,0,0,1.875,-8.737848699092865,-3.75)">
    <path class="st0" d="M45.9,27.9C45.9,27.9,45.9,28,45.9,27.9c-0.1,0-0.7,0.1-1.6,0.1c-2.8,0-8.7-0.5-11.2-4.6
      c-0.3-0.5-0.1-1.1,0.5-1.4s1.2-0.1,1.5,0.4c2.5,4.2,10.4,3.5,10.5,3.5c0.7-2,1.9-6.2,0.3-9.3c-0.7-1.3-1.8-2.2-3.3-2.7
      c0.4-1.4,0.9-4-0.3-6.1c-1-1.8-3-2.9-5.9-3.2C35.8,3.9,33.9,2,31,2c-1.3,0-2.7,0.4-4,1.2v45.6c1,0.6,2.5,1.2,4.1,1.2
      c2.3,0,5.5-1.2,7.9-6.8c1.4-0.2,4.7-1.1,6.6-4.2C47.4,36.2,47.4,32.5,45.9,27.9z M30,11.8c0.1-0.5,0.6-0.9,1.2-0.8
      c0.5,0.1,0.9,0.6,0.8,1.1c0,0.1-0.1,0.6,0.4,1.2c0.5,0.6,1.8,1.4,4.6,1.6c0.6,0,1,0.5,0.9,1.1c0,0.5-0.5,0.9-1,0.9h-0.1
      c-2.9-0.2-5-1-6.1-2.4C29.8,13.3,30,12,30,11.8z M37.1,36c-2.9,0.2-4.1,1-4.6,1.6s-0.4,1.2-0.4,1.2c0.1,0.5-0.3,1-0.8,1.1h-0.1
      c-0.5,0-0.9-0.3-1-0.8c0-0.1-0.2-1.4,0.8-2.7c1.1-1.4,3.2-2.2,6.1-2.4c0.6,0,1,0.4,1.1,0.9C38,35.5,37.6,36,37.1,36z M25,3.2
      C23.7,2.4,22.3,2,21,2c-2.9,0-4.8,1.9-5.5,2.7C12.6,5,10.7,6.1,9.6,7.9C8.4,10,8.8,12.6,9.3,14c-1.5,0.5-2.6,1.4-3.3,2.7
      c-1.4,2.7-0.6,6.3,0.1,8.5C9.9,21.3,17.6,22,18,22c0.6,0.1,1.1,0.5,1,1.1c-0.1,0.5-0.6,1-1.2,0.9c-0.1,0-8.3-0.7-10.8,3.5
      C6.8,27.8,6.4,28,6.1,28c-1.5,4.6-1.4,8.3,0.3,11c1.9,3.1,5.2,3.9,6.6,4.2c2.4,5.6,5.6,6.8,7.9,6.8c1.6,0,3.1-0.6,4.2-1.2V3.2H25z
       M15.1,17C15,17,15,17,15.1,17c-0.6,0-1-0.4-1.1-0.9c0-0.6,0.4-1,0.9-1.1c2.9-0.2,4.1-1,4.6-1.6s0.4-1.2,0.4-1.2
      c-0.1-0.5,0.3-1,0.8-1.1s1,0.3,1.1,0.8c0,0.1,0.2,1.4-0.8,2.7C20.1,16,18,16.8,15.1,17z M22,39.2c-0.1,0.5-0.5,0.8-1,0.8h-0.2
      c-0.5-0.1-0.9-0.6-0.8-1.1c0-0.1,0.1-0.6-0.4-1.2C19,37,17.8,36.2,14.9,36c-0.6,0-1-0.5-0.9-1.1c0-0.6,0.5-1,1.1-0.9
      c2.9,0.2,5,1,6.1,2.4C22.2,37.7,22,39,22,39.2z"/>
  </g>
</svg>
