<?xml version="1.0" encoding="utf-8"?>
<!-- Generator: Adobe Illustrator 25.4.1, SVG Export Plug-In . SVG Version: 6.00 Build 0)  -->
<svg version="1.1" id="Layer_1" xmlns="http://www.w3.org/2000/svg" xmlns:xlink="http://www.w3.org/1999/xlink" x="0px" y="0px"
	 viewBox="0 0 396 90" style="enable-background:new 0 0 396 90;" xml:space="preserve">
<style type="text/css">
	.st0{fill:#FFFFFF;}
</style>
<g id="cac527eb-542f-4dd9-9420-af1134ffdbcc" transform="matrix(5.741626899055351,0,0,5.741626899055351,91.81387238975063,-6.244019085031169)">
	<path class="st0" d="M1.2,14.1h1.6v-3.7c0-1.3,0.8-2.3,2.1-2.3c1.1,0,1.7,0.7,1.7,1.8v4.2h1.6v-3.7c0-1.3,0.8-2.3,2-2.3
		c1.1,0,1.8,0.7,1.8,1.8v4.2h1.6V9.4c0-1.8-1-2.9-2.7-2.9c-1.4,0-2.4,0.6-2.8,1.8C7.7,7.2,6.8,6.6,5.5,6.6C4.3,6.6,3.3,7,2.8,8.1
		V6.6H1.2C1.2,6.6,1.2,14.1,1.2,14.1z M15.1,10.4c0,2.2,1.5,3.8,3.8,3.8c1.3,0,2.4-0.5,3.1-1.3L21.1,12c-0.5,0.6-1.3,0.9-2.1,0.9
		c-1.2,0-2.1-0.7-2.3-1.9h5.6c0.2-2.7-0.9-4.4-3.5-4.4C16.6,6.6,15.1,8.1,15.1,10.4z M16.7,9.8c0.2-1.2,1-1.9,2.2-1.9
		c1.2,0,2,0.7,2.1,1.9H16.7z M23.3,10.3c0,2.3,1.4,3.8,3.6,3.8c1.2,0,2.1-0.5,2.6-1.3v1.3h1.6V3.7h-1.6v4.2
		c-0.5-0.9-1.4-1.3-2.6-1.3C24.8,6.6,23.3,8.1,23.3,10.3z M24.9,10.4c0-1.4,1-2.4,2.3-2.4s2.3,1,2.3,2.4c0,1.4-0.9,2.4-2.3,2.4
		C25.9,12.8,24.9,11.8,24.9,10.4z M33.3,11.3c0,1.8,1,2.9,2.7,2.9c1.2,0,2.2-0.5,2.7-1.5v1.4h1.6V6.6h-1.6v3.7c0,1.3-0.8,2.3-2,2.3
		c-1.1,0-1.7-0.7-1.7-1.8V6.6h-1.6L33.3,11.3L33.3,11.3z M42.8,14.1h1.6V3.7h-1.6V14.1z M46.2,11.8c0,1.3,1,2.3,2.6,2.3
		c1.1,0,1.9-0.3,2.5-1v0.9h1.6l0-4.9c0-1.6-1.1-2.6-3-2.6c-1.4,0-2.2,0.3-3.2,0.9l0.7,1.1c0.7-0.5,1.5-0.8,2.2-0.8
		c1.2,0,1.8,0.6,1.8,1.5v0.2H49C47.2,9.6,46.2,10.5,46.2,11.8z M47.7,11.8c0-0.7,0.5-1,1.5-1h2v0.7c-0.1,0.8-1,1.4-2.1,1.4
		C48.3,12.9,47.7,12.4,47.7,11.8z"/>
</g>
<g id="f4c4ed03-1c2f-4861-8a98-65b1eee72ab8" transform="matrix(1.875,0,0,1.875,-8.737848699092865,-3.75)">
	<path class="st0" d="M45.9,27.9C45.9,27.9,45.9,28,45.9,27.9c-0.1,0-0.7,0.1-1.6,0.1c-2.8,0-8.7-0.5-11.2-4.6
		c-0.3-0.5-0.1-1.1,0.5-1.4s1.2-0.1,1.5,0.4c2.5,4.2,10.4,3.5,10.5,3.5c0.7-2,1.9-6.2,0.3-9.3c-0.7-1.3-1.8-2.2-3.3-2.7
		c0.4-1.4,0.9-4-0.3-6.1c-1-1.8-3-2.9-5.9-3.2C35.8,3.9,33.9,2,31,2c-1.3,0-2.7,0.4-4,1.2v45.6c1,0.6,2.5,1.2,4.1,1.2
		c2.3,0,5.5-1.2,7.9-6.8c1.4-0.2,4.7-1.1,6.6-4.2C47.4,36.2,47.4,32.5,45.9,27.9z M30,11.8c0.1-0.5,0.6-0.9,1.2-0.8
		c0.5,0.1,0.9,0.6,0.8,1.1c0,0.1-0.1,0.6,0.4,1.2c0.5,0.6,1.8,1.4,4.6,1.6c0.6,0,1,0.5,0.9,1.1c0,0.5-0.5,0.9-1,0.9h-0.1
		c-2.9-0.2-5-1-6.1-2.4C29.8,13.3,30,12,30,11.8z M37.1,36c-2.9,0.2-4.1,1-4.6,1.6s-0.4,1.2-0.4,1.2c0.1,0.5-0.3,1-0.8,1.1h-0.1
		c-0.5,0-0.9-0.3-1-0.8c0-0.1-0.2-1.4,0.8-2.7c1.1-1.4,3.2-2.2,6.1-2.4c0.6,0,1,0.4,1.1,0.9C38,35.5,37.6,36,37.1,36z M25,3.2
		C23.7,2.4,22.3,2,21,2c-2.9,0-4.8,1.9-5.5,2.7C12.6,5,10.7,6.1,9.6,7.9C8.4,10,8.8,12.6,9.3,14c-1.5,0.5-2.6,1.4-3.3,2.7
		c-1.4,2.7-0.6,6.3,0.1,8.5C9.9,21.3,17.6,22,18,22c0.6,0.1,1.1,0.5,1,1.1c-0.1,0.5-0.6,1-1.2,0.9c-0.1,0-8.3-0.7-10.8,3.5
		C6.8,27.8,6.4,28,6.1,28c-1.5,4.6-1.4,8.3,0.3,11c1.9,3.1,5.2,3.9,6.6,4.2c2.4,5.6,5.6,6.8,7.9,6.8c1.6,0,3.1-0.6,4.2-1.2L25,3.2
		L25,3.2z M15.1,17C15,17,15,17,15.1,17c-0.6,0-1-0.4-1.1-0.9c0-0.6,0.4-1,0.9-1.1c2.9-0.2,4.1-1,4.6-1.6s0.4-1.2,0.4-1.2
		c-0.1-0.5,0.3-1,0.8-1.1s1,0.3,1.1,0.8c0,0.1,0.2,1.4-0.8,2.7C20.1,16,18,16.8,15.1,17z M22,39.2c-0.1,0.5-0.5,0.8-1,0.8h-0.2
		c-0.5-0.1-0.9-0.6-0.8-1.1c0-0.1,0.1-0.6-0.4-1.2C19,37,17.8,36.2,14.9,36c-0.6,0-1-0.5-0.9-1.1c0-0.6,0.5-1,1.1-0.9
		c2.9,0.2,5,1,6.1,2.4C22.2,37.7,22,39,22,39.2z"/>
</g>
</svg>
